<svg width="85" height="115" viewBox="0 0 85 115" fill="none" xmlns="http://www.w3.org/2000/svg">
<path d="M6.06667 45.1466H18.0932V12.1866H53.0133C63.7733 12.1866 72.5199 20.9333 72.5199 31.68C72.5199 42.4266 63.7733 51.1733 53.0133 51.1733L36.4266 51.2133V51.24H6.06667C2.72 51.24 0 53.96 0 57.3066C0 60.6533 2.72 63.3733 6.06667 63.3733H36.4266H53.0133C59.9866 63.3733 66.44 61.12 71.6667 57.3066C79.5733 51.5466 84.7066 42.2133 84.7066 31.68C84.7066 22.9333 81.1599 15.0133 75.4266 9.27995C69.6932 3.53329 61.7733 -4.57764e-05 53.0133 -4.57764e-05H5.90664V45.1466H6.06667Z" fill="#2746A1"/>
<path d="M64.5466 67.2133C69.3733 70.76 72.5199 76.4934 72.5199 82.9336C72.5199 93.6798 63.7733 102.427 53.0133 102.427H18.0932V69.4666V69.0266H5.90662V114.613H53.0133C70.5199 114.613 84.7066 100.427 84.7066 82.9336C84.7066 74.4664 81.4 66.7866 76 61.1066C72.6 63.7733 68.7333 65.8533 64.5466 67.2133Z" fill="#2746A1"/>
</svg>
