<svg width="111" height="150" viewBox="0 0 111 150" fill="none" xmlns="http://www.w3.org/2000/svg">
<path d="M7.91895 82.252H69.2324C78.2212 82.252 86.5404 79.3549 93.2871 74.4424V74.4414C103.485 66.998 110.113 54.9721 110.113 41.3789C110.113 30.0901 105.541 19.8711 98.1416 12.4717C90.7426 5.07262 80.5184 0.500068 69.2324 0.500031H8.20898V58.4649H23.1309V15.4229H69.2324C83.5486 15.423 95.1914 27.0628 95.1914 41.3789C95.1912 55.695 83.5484 67.332 69.2324 67.3321H69.2334L48.0596 67.3848V67.4258H7.91895C3.82175 67.4258 0.5 70.7484 0.5 74.8457C0.500228 78.9417 3.8208 82.252 7.91895 82.252Z" fill="white" stroke="white"/>
<path d="M69.2323 149.172C91.8103 149.172 110.113 130.876 110.113 108.299C110.113 97.54 105.967 87.769 99.1776 80.4785C95.0305 83.659 90.3642 86.2106 85.328 87.9532C91.3328 92.7121 95.1913 100.059 95.1913 108.299C95.1911 122.615 83.5483 134.252 69.2323 134.252H23.1307V90.6524H8.20886V149.172H69.2323Z" fill="white" stroke="white"/>
</svg>
