<svg width="330" height="115" viewBox="0 0 330 115" fill="none" xmlns="http://www.w3.org/2000/svg">
<path d="M6.06667 45.1466H18.0932V12.1866H53.0133C63.7733 12.1866 72.5199 20.9333 72.5199 31.68C72.5199 42.4266 63.7733 51.1733 53.0133 51.1733L36.4266 51.2133V51.24H6.06667C2.72 51.24 0 53.96 0 57.3066C0 60.6533 2.72 63.3733 6.06667 63.3733H36.4266H53.0133C59.9866 63.3733 66.44 61.12 71.6667 57.3066C79.5733 51.5466 84.7066 42.2133 84.7066 31.68C84.7066 22.9333 81.1599 15.0133 75.4266 9.27995C69.6932 3.53329 61.7733 -4.57764e-05 53.0133 -4.57764e-05H5.90664V45.1466H6.06667Z" fill="#2746A1"/>
<path d="M64.5466 67.2133C69.3733 70.76 72.5199 76.4934 72.5199 82.9336C72.5199 93.6798 63.7733 102.427 53.0133 102.427H18.0932V69.4666V69.0266H5.90662V114.613H53.0133C70.5199 114.613 84.7066 100.427 84.7066 82.9336C84.7066 74.4664 81.4 66.7866 76 61.1066C72.6 63.7733 68.7333 65.8533 64.5466 67.2133Z" fill="#2746A1"/>
<path d="M95.7733 114.613H99.4266V-3.38586e-05H95.7733V114.613Z" fill="#2746A1"/>
<path d="M124.267 40.3866V31.6799H128.787C129.907 31.6799 130.987 31.8 132.013 32.0266C133.053 32.2666 133.893 32.6799 134.547 33.2799C135.2 33.8799 135.533 34.7599 135.533 35.9199C135.533 36.9333 135.253 37.7866 134.707 38.4533C134.173 39.1199 133.427 39.6133 132.48 39.9199C131.533 40.2266 130.493 40.3866 129.32 40.3866H124.267ZM124.267 15.3066H128.507C130.067 15.3066 131.307 15.6533 132.24 16.3333C133.16 17.0266 133.627 18.0533 133.627 19.4399C133.627 20.6399 133.253 21.7066 132.507 22.6533C131.76 23.5866 130.613 24.0666 129.053 24.0666H124.267V15.3066ZM134.88 47.1066C136.547 46.6799 138.04 46.0133 139.36 45.0933C140.68 44.16 141.733 42.9466 142.52 41.4399C143.293 39.9333 143.693 38.0933 143.693 35.9199C143.693 33.5599 142.947 31.5466 141.453 29.8533C140.293 28.5333 138.8 27.4666 136.973 26.6266C138.16 25.8933 139.16 25.0133 139.96 23.9199C141.173 22.2799 141.787 20.2133 141.787 17.7466C141.787 14.4133 140.547 11.9066 138.08 10.2133C135.613 8.53327 132.293 7.67994 128.133 7.67994H116.373V47.7333H129.707C131.48 47.7333 133.2 47.5199 134.88 47.1066Z" fill="#2746A1"/>
<path d="M185.253 47.7333V7.67994H177.36V23.8399H159.467V7.67994H151.573V47.7333H159.467V31.4666H177.36V47.7333H185.253Z" fill="#2746A1"/>
<path d="M204.88 33.2533L208.947 23.4933L212.787 33.2533H204.88ZM202.107 39.8933H215.4L218.493 47.7333H227.627L209.573 6.10662H209.133L191.067 47.7333H198.853L202.107 39.8933Z" fill="#2746A1"/>
<path d="M241.333 15.3066H247C248.373 15.3066 249.466 15.5333 250.293 16.0133C251.106 16.4799 251.707 17.0666 252.107 17.7466C252.507 18.4399 252.773 19.1199 252.893 19.7866C253.026 20.4666 253.093 21.0133 253.093 21.4533C253.093 22.0266 252.986 22.6533 252.786 23.3333C252.586 23.9999 252.266 24.6399 251.813 25.2533C251.36 25.8799 250.733 26.3866 249.933 26.7866C249.133 27.1866 248.146 27.3866 246.946 27.3866H241.333V15.3066ZM241.333 34.9999H246.586L255.053 47.7333H264.24L254.92 33.1733C256.2 32.4533 257.266 31.5733 258.12 30.5333C259.226 29.1999 260.026 27.7066 260.52 26.0799C261 24.4399 261.253 22.8133 261.253 21.1733C261.253 19.1066 260.906 17.2533 260.213 15.5999C259.533 13.9466 258.52 12.5333 257.2 11.36C255.867 10.1866 254.226 9.27995 252.28 8.63995C250.32 7.99995 248.08 7.67994 245.586 7.67994H233.453V47.7333H241.333V34.9999Z" fill="#2746A1"/>
<path d="M280.053 33.2533L284.12 23.4933L287.973 33.2533H280.053ZM284.32 6.10662L266.253 47.7333H274.04L277.293 39.8933H290.587L293.667 47.7333H302.813L284.747 6.10662H284.32Z" fill="#2746A1"/>
<path d="M302.653 7.67994V15.3066H312.013V47.7333H319.893V15.3066H329.626V7.67994H302.653Z" fill="#2746A1"/>
<path d="M136.747 86.0132L116.427 57.2H116.373V98.8799H124V80.9602L136.56 98.3331H136.667L149.733 79.7731V98.8799H157.613V57.2H157.507L136.747 86.0132Z" fill="#2746A1"/>
<path d="M167.947 98.8799H175.84V58.84H167.947V98.8799Z" fill="#2746A1"/>
<path d="M194.44 66.6667C195.427 65.9867 196.76 65.64 198.467 65.64C199.853 65.64 201.333 65.9067 202.907 66.4533C204.48 67 206.04 67.68 207.56 68.52L210.547 62.48C208.947 61.4267 207.147 60.52 205.133 59.76C203.12 59 200.507 58.6133 197.28 58.6133C194.813 58.7333 192.627 59.28 190.747 60.28C188.853 61.28 187.4 62.6267 186.373 64.3333C185.333 66.04 184.813 68.0533 184.813 70.3733C184.813 72.2935 185.173 73.92 185.88 75.2397C186.587 76.5601 187.507 77.6664 188.653 78.5601C189.8 79.4397 191.013 80.1997 192.32 80.8132C193.627 81.4268 194.893 81.9731 196.133 82.4533C197.187 82.8397 198.16 83.32 199.04 83.8664C199.933 84.4003 200.64 84.9997 201.16 85.6533C201.693 86.3064 201.947 87.0397 201.947 87.8268C201.947 88.9867 201.64 89.8935 201 90.5465C200.36 91.1997 199.573 91.6664 198.613 91.9336C197.64 92.2132 196.693 92.3465 195.747 92.3465C194.813 92.3465 193.773 92.1997 192.653 91.9064C191.52 91.6268 190.413 91.2132 189.307 90.6935C188.2 90.1601 187.173 89.5601 186.227 88.8664L182.747 95.0132C184.16 95.9867 185.627 96.7997 187.16 97.4397C188.68 98.0669 190.227 98.5465 191.8 98.8533C193.387 99.1601 194.933 99.3064 196.453 99.3064C199.427 99.3064 201.933 98.7731 203.96 97.7064C206 96.6397 207.533 95.2268 208.587 93.4935C209.64 91.7465 210.173 89.8664 210.173 87.8268C210.173 85.9064 209.893 84.2935 209.347 82.9601C208.813 81.6397 208.08 80.5331 207.173 79.6397C206.267 78.7601 205.24 78.0132 204.107 77.4132C202.96 76.8132 201.813 76.2935 200.64 75.8664C199.373 75.3867 198.16 74.8664 196.973 74.2799C195.8 73.7064 194.84 73.0397 194.093 72.3064C193.347 71.56 192.973 70.72 192.973 69.7733C192.973 68.3867 193.467 67.36 194.44 66.6667Z" fill="#2746A1"/>
<path d="M215.173 66.4534H224.533V98.8799H232.413V66.4534H242.16V58.84H215.173V66.4534Z" fill="#2746A1"/>
<path d="M269.107 74.4799C268.907 75.1466 268.587 75.7867 268.133 76.4132C267.68 77.0268 267.053 77.5331 266.253 77.9336C265.453 78.3331 264.467 78.5331 263.267 78.5331H257.653V66.4534H263.32C264.693 66.4534 265.8 66.6934 266.613 67.16C267.427 67.6267 268.026 68.2134 268.426 68.8934C268.826 69.5867 269.093 70.2667 269.213 70.9467C269.347 71.6134 269.413 72.1602 269.413 72.6003C269.413 73.1867 269.307 73.7998 269.107 74.4799ZM274.44 81.6799C275.547 80.3466 276.347 78.8534 276.84 77.2268C277.333 75.5867 277.573 73.9602 277.573 72.3331C277.573 70.2667 277.227 68.4 276.533 66.7467C275.853 65.1067 274.84 63.6934 273.52 62.5067C272.186 61.3334 270.547 60.4267 268.6 59.7867C266.64 59.16 264.4 58.84 261.907 58.84H249.773V98.8799H257.653V86.1466H262.907L271.373 98.8799H280.56L271.24 84.32C272.52 83.6003 273.587 82.72 274.44 81.6799Z" fill="#2746A1"/>
<path d="M287.093 98.8799H294.973V58.84H287.093V98.8799Z" fill="#2746A1"/>
</svg>
